# xmcd
#
# Track frame offsets:
#	150
#	19111
#	31883
#	44003
#	60727
#	74967
#	85855
#	111170
#	127992
#	139948
#	158154
#	169986
#	188123
#	205266
#	217569
#
# Disc length: 3048 seconds
# Revision: 0
# Processed by: cddbd v1.5.2PL0 Copyright (c) Steve Scherf et al.
# Submitted via: dBpowerAMP V12.0
#
DISCID=d90be60f
DTITLE=Bruce Molsky - Soon Be Time
DYEAR=2006
DGENRE=Folk
TTITLE0=Lazy John - The Bucking Mule
TTITLE1=Wandering Boy
TTITLE2=Buckdancer's Choice
TTITLE3=Bury Me Not on the Lone Prairie
TTITLE4=The Brass Band Ruchenitsa
TTITLE5=Georgia Belle
TTITLE6=The Golden Willow Tree
TTITLE7=Come Home
TTITLE8=Forked Deer
TTITLE9=Fare Thee Well Blues
TTITLE10=Cider
TTITLE11=Cotton Eyed Joe
TTITLE12=On My Street
TTITLE13=John Brown's Dream
TTITLE14=Three Forks of Cheat
EXTD=
EXTT0=
EXTT1=
EXTT2=
EXTT3=
EXTT4=
EXTT5=
EXTT6=
EXTT7=
EXTT8=
EXTT9=
EXTT10=
EXTT11=
EXTT12=
EXTT13=
EXTT14=
PLAYORDER=
